<?xml version="1.0" encoding="UTF-8" standalone="no"?>
<!-- Created with Inkscape (http://www.inkscape.org/) -->

<svg
   width="58.899872mm"
   height="32.945534mm"
   viewBox="0 0 58.899872 32.945534"
   version="1.1"
   id="svg1"
   xmlns="http://www.w3.org/2000/svg"
   xmlns:svg="http://www.w3.org/2000/svg">
  <defs
     id="defs1" />
  <g
     id="layer2"
     transform="matrix(0.26458333,0,0,0.26458333,5.0651571,4.9911648)">
    <g
       id="logo_bfarm-2"
       data-name="logo bfarm"
       transform="translate(-1.6535434e-6)">
      <path
         id="Path"
         d="M 2.8,0 H 4.93 V 28.69 H 0 V 0 Z"
         transform="translate(41.602,58.31)"
         fill="#fecd1f" />
      <path
         id="Path-2"
         data-name="Path"
         d="M 2.8,0 H 4.93 V 28.807 H 0 V 0 Z"
         transform="translate(41.602,29.699)"
         fill="#e62f2e" />
      <path
         id="Shape"
         d="m 16.511,31.232 c -0.49,0 -0.98,-1.179 -1.167,-1.686 v 0.006 c -0.314,0.635 -0.67,1.355 -1.282,1.355 a 1.416,1.416 0 0 1 -1.137,-0.74 c 1.558,-0.415 2.451,-2.68 2.451,-6.216 A 14.875,14.875 0 0 0 15.2,21.5 c -0.009,-0.063 -0.018,-0.125 -0.027,-0.186 a 6.046,6.046 0 0 0 -1.108,3.019 1.631,1.631 0 0 1 -0.584,-0.887 13.405,13.405 0 0 0 -1.517,2.22 h 0.012 a 8.491,8.491 0 0 0 1.076,-0.1 4.52,4.52 0 0 1 0.458,-0.049 c 0.66,0 0.759,0.407 0.759,0.65 0,0.458 -0.437,0.862 -0.756,1.157 l -0.032,0.029 c -0.209,-0.446 -0.864,-0.513 -1.236,-0.513 -0.129,0 -0.218,0.009 -0.222,0.009 a 6,6 0 0 0 -0.671,0.029 3.743,3.743 0 0 1 0.028,0.563 v 0.651 a 1.819,1.819 0 0 0 0.584,1.659 c -0.024,0.012 -0.054,0.032 -0.09,0.054 a 1.251,1.251 0 0 1 -0.7,0.241 c -0.828,0 -0.962,-0.576 -0.962,-1.954 v -0.3 A 3.118,3.118 0 0 0 9.307,29.481 1.851,1.851 0 0 0 9.336,29.865 1.264,1.264 0 0 1 8.2,28.716 c 0,-0.526 0.637,-1.169 1.059,-1.595 0.129,-0.13 0.24,-0.242 0.313,-0.329 h -0.12 c -1.077,0 -1.356,0.344 -1.487,0.681 a 1.679,1.679 0 0 1 -0.584,-1.3 c 0,-0.317 0.08,-0.68 0.7,-0.68 a 17.7,17.7 0 0 1 2.13,0.177 17.364,17.364 0 0 0 1.867,-3.019 4.725,4.725 0 0 1 -0.817,0.059 2.463,2.463 0 0 1 -0.525,-0.059 c 1.6,-1.421 3.5,-3.672 3.5,-6.336 A 3.664,3.664 0 0 0 14,15.1 0.2,0.2 0 0 1 13.952,15.089 0.345,0.345 0 0 0 13.852,15.07 l -4.808,7.846 c -1.439,2.278 -2.58,2.278 -4.16,2.278 H 4.755 a 13.286,13.286 0 0 0 2.8,-3.222 v -0.005 l 4.522,-7.342 c -0.272,-0.093 -0.511,-0.183 -0.729,-0.267 l -4,6.513 c -1.441,2.282 -2.586,2.282 -4.17,2.282 H 3.063 a 12.732,12.732 0 0 0 2.771,-3.228 l 3.91,-6.337 A 4.286,4.286 0 0 1 9.1,13.2 L 5.893,18.385 A 4.7,4.7 0 0 1 3.956,20.36 4.885,4.885 0 0 1 1.85,20.665 H 1.6 a 11.666,11.666 0 0 0 2.8,-3.227 l 3.268,-5.3 C 7.581,12.049 7.492,11.951 7.406,11.857 7.32,11.763 7.231,11.664 7.144,11.576 L 4.81,15.336 A 4.7,4.7 0 0 1 2.874,17.312 4.884,4.884 0 0 1 0.768,17.617 H 0.525 a 11.6,11.6 0 0 0 2.8,-3.227 L 6.01,10.034 A 5.359,5.359 0 0 1 5.66,9.175 L 4.288,11.4 C 2.878,13.679 1.725,13.679 0.13,13.679 H 0 A 11.8,11.8 0 0 0 2.8,10.451 L 5.456,6.157 A 6.5,6.5 0 0 1 7.382,2.657 4.005,4.005 0 0 1 6.594,2.274 H 6.603 A 9.726,9.726 0 0 0 9.417,1.713 6.164,6.164 0 0 1 10.97,1.358 0.892,0.892 0 0 1 11.961,2.217 c -0.027,0.528 -0.54,1.1 -1.6,1.1 A 5.1,5.1 0 0 1 9.515,3.227 4.28,4.28 0 0 0 8.52,5.712 c 0,1.782 2.086,3.345 4.463,3.345 a 1.891,1.891 0 0 0 0.379,-0.028 8.791,8.791 0 0 1 1.791,-3.067 c 0.118,-0.148 0.229,-0.287 0.339,-0.428 -0.886,-0.317 -1.9,-1.17 -1.9,-1.6 0,-0.027 0,-0.028 0.029,-0.028 a 8.356,8.356 0 0 0 1.985,0.592 0.157,0.157 0 0 0 0.069,0.023 0.063,0.063 0 0 0 0.048,-0.023 c 0.234,-0.06 0.408,-0.417 0.408,-0.443 L 15.982,4.033 A 9.2,9.2 0 0 1 14.089,3.61 C 13.526,3.398 13.243,3.039 13.243,2.898 a 0.028,0.028 0 0 1 0.029,-0.028 1.18,1.18 0 0 1 0.243,0.067 4.955,4.955 0 0 0 1.595,0.288 3.636,3.636 0 0 0 0.816,-0.06 C 15.691,2.608 15.231,2.011 14.643,2.011 A 3.139,3.139 0 0 0 13.535,2.366 3.071,3.071 0 0 1 13.01,1.005 c 0,-0.4 0.368,-0.83 1.4,-0.83 a 3.194,3.194 0 0 1 0.788,0.09 2.939,2.939 0 0 1 0.555,0.147 V 0.3 c 0,-0.2 0.206,-0.3 0.612,-0.3 a 8.6,8.6 0 0 1 1.235,0.122 10.51,10.51 0 0 0 1.571,0.146 1.851,1.851 0 0 0 0.613,-0.06 2.52,2.52 0 0 1 -0.642,0.769 2.832,2.832 0 0 1 0.613,1.746 6.21,6.21 0 0 1 -0.485,2.087 6.211,6.211 0 0 0 -0.482,2.09 3.483,3.483 0 0 0 0.642,1.718 4.5,4.5 0 0 1 0.233,0.414 1.63,1.63 0 0 0 0.381,0.028 5.3,5.3 0 0 0 3.049,-0.973 2.984,2.984 0 0 0 1.386,-2.372 4.11,4.11 0 0 0 -0.992,-2.487 4.793,4.793 0 0 1 -0.846,0.09 c -1.024,0 -1.55,-0.568 -1.6,-1.1 a 0.912,0.912 0 0 1 0.992,-0.859 6.169,6.169 0 0 1 1.575,0.358 9.721,9.721 0 0 0 2.83,0.561 3.645,3.645 0 0 1 -0.816,0.384 6.365,6.365 0 0 1 1.948,3.496 l 2.655,4.292 A 12.117,12.117 0 0 0 33,13.677 h -0.129 c -1.579,0 -2.721,0 -4.16,-2.279 L 27.369,9.178 A 4.4,4.4 0 0 1 27.054,9.91 l -0.064,0.127 2.71,4.354 a 11.688,11.688 0 0 0 2.8,3.227 h -0.244 a 4.9,4.9 0 0 1 -2.108,-0.305 4.7,4.7 0 0 1 -1.937,-1.976 l -2.335,-3.76 c -0.056,0.057 -0.111,0.116 -0.169,0.179 a 5.1,5.1 0 0 1 -0.385,0.385 l 3.268,5.3 a 12.833,12.833 0 0 0 2.8,3.227 h -0.248 c -1.463,0 -2.618,0 -4.04,-2.281 L 23.924,13.2 a 4.741,4.741 0 0 1 -0.482,0.295 l -0.16,0.09 3.88,6.336 0.018,0.027 a 12.988,12.988 0 0 0 2.783,3.2 h -0.12 a 5.289,5.289 0 0 1 -2.171,-0.3 4.746,4.746 0 0 1 -2,-1.987 l -4,-6.513 c -0.268,0.092 -0.507,0.182 -0.73,0.267 l 4.522,7.342 a 12.394,12.394 0 0 0 2.8,3.227 h -0.131 c -1.595,0 -2.747,0 -4.158,-2.278 l -4.843,-7.848 a 0.209,0.209 0 0 0 -0.05,0.011 0.336,0.336 0 0 1 -0.1,0.019 4.463,4.463 0 0 0 -0.2,1.214 c 0,2.7 1.9,4.937 3.5,6.336 a 2.653,2.653 0 0 1 -0.525,0.059 5.193,5.193 0 0 1 -0.846,-0.059 17.257,17.257 0 0 0 1.836,2.936 l 0.061,0.083 a 17.462,17.462 0 0 1 2.129,-0.177 c 0.62,0 0.7,0.364 0.7,0.68 a 1.764,1.764 0 0 1 -0.584,1.3 C 24.915,27.106 24.637,26.779 23.537,26.779 H 23.42 c 0.069,0.076 0.165,0.17 0.277,0.279 0.448,0.438 1.124,1.1 1.124,1.646 a 1.26,1.26 0 0 1 -1.161,1.166 0.94,0.94 0 0 0 0.059,-0.384 2.838,2.838 0 0 0 -0.933,-1.689 l 0.011,0.055 a 0.834,0.834 0 0 1 0.018,0.241 c 0,1.378 -0.134,1.954 -0.963,1.954 A 1.318,1.318 0 0 1 21.091,29.77 L 21.065,29.751 A 1.806,1.806 0 0 0 21.62,28.092 V 27.441 A 3.638,3.638 0 0 1 21.649,26.878 5.3,5.3 0 0 0 21,26.852 c 0,0 -0.092,-0.009 -0.228,-0.009 -0.379,0 -1.042,0.067 -1.23,0.513 h -0.006 c -0.3,-0.26 -0.811,-0.694 -0.811,-1.182 0,-0.243 0.1,-0.65 0.759,-0.65 a 4.476,4.476 0 0 1 0.451,0.048 8.994,8.994 0 0 0 1.125,0.1 15.206,15.206 0 0 0 -1.517,-2.22 1.813,1.813 0 0 1 -0.584,0.887 6.014,6.014 0 0 0 -1.108,-3.019 c -0.009,0.063 -0.018,0.126 -0.027,0.19 a 14.814,14.814 0 0 0 -0.177,2.445 c 0,3.535 0.893,5.8 2.451,6.216 a 1.465,1.465 0 0 1 -1.167,0.74 c -0.563,0 -0.886,-0.609 -1.2,-1.2 l -0.086,-0.162 c -0.408,1.116 -0.792,1.683 -1.134,1.683 z M 10.5,27.118 v 0 l 0.029,0.266 c 0,0.078 0.005,0.165 0.012,0.267 0.008,0.13 0.017,0.277 0.017,0.443 0,1.411 0.123,1.6 0.613,1.6 a 0.889,0.889 0 0 0 0.116,-0.014 0.889,0.889 0 0 1 0.117,-0.014 2.482,2.482 0 0 1 -0.35,-1.571 v -0.65 A 4.532,4.532 0 0 0 11,26.7 l -0.029,-0.118 h 0.087 l 0.121,-0.015 a 7.158,7.158 0 0 1 0.842,-0.073 1.922,1.922 0 0 1 1.458,0.384 1.207,1.207 0 0 0 0.438,-0.71 c 0,-0.3 -0.171,-0.3 -0.409,-0.3 a 1.842,1.842 0 0 0 -0.38,0.029 c -0.059,0.006 -0.124,0.015 -0.2,0.024 a 10.009,10.009 0 0 1 -1.435,0.093 h -0.059 l 0.029,-0.06 a 11.183,11.183 0 0 1 1.868,-2.9 c -0.083,-0.311 -0.167,-0.532 -0.495,-0.532 a 0.916,0.916 0 0 0 -0.35,0.06 18.54,18.54 0 0 1 -2.05,3.362 l -0.05,0.071 -0.029,0.03 H 10.33 A 12.116,12.116 0 0 0 8.083,25.809 H 8.055 a 0.434,0.434 0 0 0 -0.263,0.059 0.436,0.436 0 0 0 -0.087,0.3 1.833,1.833 0 0 0 0.2,0.74 1.981,1.981 0 0 1 1.546,-0.473 2.1,2.1 0 0 1 0.672,0.118 l 0.116,0.029 -0.059,0.059 -0.38,0.386 c -0.689,0.7 -1.283,1.3 -1.283,1.686 a 1.023,1.023 0 0 0 0.437,0.711 4.03,4.03 0 0 1 1.489,-2.279 L 10.5,27.115 Z M 21,26.5 a 7.174,7.174 0 0 1 0.845,0.073 l 0.118,0.015 h 0.059 V 26.7 a 4.312,4.312 0 0 0 -0.059,0.74 v 0.651 a 2.494,2.494 0 0 1 -0.379,1.571 0.848,0.848 0 0 1 0.131,0.014 0.854,0.854 0 0 0 0.132,0.014 c 0.467,0 0.612,-0.221 0.612,-1.6 0,-0.167 0.009,-0.315 0.017,-0.444 0.006,-0.1 0.012,-0.188 0.012,-0.266 v -0.267 l 0.059,0.03 a 3.75,3.75 0 0 1 1.488,2.278 0.977,0.977 0 0 0 0.468,-0.71 c 0,-0.34 -0.487,-0.851 -1.052,-1.443 l -0.232,-0.244 -0.467,-0.445 0.087,-0.028 H 22.9 a 1.921,1.921 0 0 1 0.642,-0.119 1.946,1.946 0 0 1 1.545,0.474 1.479,1.479 0 0 0 0.2,-0.74 0.442,0.442 0 0 0 -0.087,-0.3 c -0.059,-0.06 -0.149,-0.06 -0.263,-0.06 a 12.748,12.748 0 0 0 -2.276,0.237 L 22.633,26.013 22.58,25.94 v 0 a 16.632,16.632 0 0 1 -2.045,-3.356 l -0.057,-0.016 a 0.887,0.887 0 0 0 -0.293,-0.043 c -0.328,0 -0.413,0.22 -0.5,0.532 a 11.962,11.962 0 0 1 1.867,2.9 v 0.06 h -0.029 a 10.561,10.561 0 0 1 -1.468,-0.094 l -0.2,-0.023 a 1.831,1.831 0 0 0 -0.379,-0.029 c -0.237,0 -0.409,0 -0.409,0.3 0,0.25 0.335,0.607 0.438,0.71 A 2.045,2.045 0 0 1 21,26.5 Z M 24.332,3.049 c -0.093,0.032 -0.179,0.06 -0.293,0.09 l 0.039,0.048 a 4.184,4.184 0 0 1 1.185,2.585 c 0,2.352 -2.467,4.442 -5.279,4.472 v 0.65 c 0,0.335 -0.031,0.7 -0.059,0.978 3.145,-0.028 6.01,-2.667 6.01,-5.537 A 4.922,4.922 0 0 0 24.332,3.049 Z m -15.668,0 A 4.952,4.952 0 0 0 7.089,6.335 c 0,2.9 2.893,5.537 6.069,5.537 A 9.633,9.633 0 0 1 13.099,10.894 4.851,4.851 0 0 1 13.128,10.244 5.962,5.962 0 0 1 9.372,8.907 4.158,4.158 0 0 1 7.76,5.771 4.229,4.229 0 0 1 8.95,3.146 L 8.956,3.139 C 8.882,3.113 8.79,3.081 8.665,3.049 Z M 14.645,1.6 a 1.577,1.577 0 0 1 1.2,0.651 2.773,2.773 0 0 1 0.584,1.214 L 16.457,3.402 A 2.5,2.5 0 0 0 16.749,2.37 c 0,-1.1 -0.895,-1.776 -2.334,-1.776 -0.67,0 -1.021,0.209 -1.021,0.415 a 2.943,2.943 0 0 0 0.291,0.828 3.044,3.044 0 0 1 0.96,-0.237 z m 2.392,-0.888 c -0.253,0 -0.291,0.276 -0.291,0.441 a 2.085,2.085 0 0 1 0.35,0.83 0.825,0.825 0 0 0 0.18,0.02 0.764,0.764 0 0 0 0.761,-0.617 0.4,0.4 0 0 0 -0.359,-0.44 c 0.087,0.32 -0.4,0.559 -0.408,0.561 A 0.689,0.689 0 0 1 17.33,0.8 0.675,0.675 0 0 0 17.037,0.712 Z"
         fill="#1d1d1e" />
      <path
         id="Path-3"
         data-name="Path"
         d="M 4.93,0 V 28.688 H 0 V 0 Z"
         transform="translate(41.602,1.361)"
         fill="#1d1d1e" />
      <path
         id="Shape-2"
         data-name="Shape"
         d="M 2.83,11.724 H 0 V 0 H 3.063 A 3.186,3.186 0 0 1 5.338,0.679 3.009,3.009 0 0 1 6.068,2.931 3.3,3.3 0 0 1 5.688,4.617 2.285,2.285 0 0 1 4.346,5.594 2.282,2.282 0 0 1 5.892,6.6 4.065,4.065 0 0 1 6.273,8.5 3.227,3.227 0 0 1 5.4,11.043 4.071,4.071 0 0 1 2.83,11.724 Z M 1.343,6.156 V 10.6 H 2.567 A 2.854,2.854 0 0 0 4.288,10.216 2.262,2.262 0 0 0 4.872,8.44 2.45,2.45 0 0 0 4.372,6.722 2.068,2.068 0 0 0 2.772,6.158 Z m 0,-5.062 v 4 h 1.4 A 1.934,1.934 0 0 0 4.212,4.579 2.211,2.211 0 0 0 4.7,3.019 1.915,1.915 0 0 0 4.175,1.478 2.306,2.306 0 0 0 2.688,1.094 Z"
         transform="translate(57.005,1.125)"
         fill="#1d1d1e" />
      <path
         id="Path-4"
         data-name="Path"
         d="M 5.456,8.172 H 4.2 L 4.172,7.106 A 2.23,2.23 0 0 1 2.159,8.29 C 0.73,8.29 0,7.462 0,5.773 V 0 H 1.255 V 5.212 A 3.963,3.963 0 0 0 1.43,6.631 1.07,1.07 0 0 0 2.538,7.343 q 1.576,0 1.576,-2.4 V 0 H 5.4 v 6.367 c 0,0.62 0.027,1.242 0.056,1.805 z"
         transform="translate(65.378,4.676)"
         fill="#1d1d1e" />
      <path
         id="Path-5"
         data-name="Path"
         d="M 5.486,8.349 H 4.2 V 3.109 A 4.023,4.023 0 0 0 4.054,1.687 1.056,1.056 0 0 0 2.976,0.949 1.461,1.461 0 0 0 1.692,1.777 3.644,3.644 0 0 0 1.342,3.436 V 8.35 H 0.087 V 1.95 A 14.217,14.217 0 0 0 0,0.178 h 1.255 v 1.1 A 2.186,2.186 0 0 1 3.355,0 c 1.4,0 2.129,0.83 2.129,2.546 v 5.8 z"
         transform="translate(73.08,4.498)"
         fill="#1d1d1e" />
      <path
         id="Shape-3"
         data-name="Shape"
         d="M 2.509,11.842 A 2.092,2.092 0 0 1 0.38,10.421 7.968,7.968 0 0 1 0,7.52 6.951,6.951 0 0 1 0.438,4.707 2.032,2.032 0 0 1 2.451,3.376 2,2 0 0 1 4.289,4.324 V 0 h 1.283 v 10.184 c 0,0.233 0,0.779 0.058,1.539 H 4.4 L 4.372,10.777 A 2.125,2.125 0 0 1 2.509,11.842 Z M 2.8,4.292 A 1.3,1.3 0 0 0 1.517,5.358 8,8 0 0 0 1.283,7.549 7.577,7.577 0 0 0 1.546,9.886 1.25,1.25 0 0 0 2.746,10.894 1.32,1.32 0 0 0 4.113,9.887 7.773,7.773 0 0 0 4.313,7.697 7.617,7.617 0 0 0 4.079,5.329 1.282,1.282 0 0 0 2.8,4.292 Z"
         transform="translate(80.608,1.125)"
         fill="#1d1d1e" />
      <path
         id="Shape-4"
         data-name="Shape"
         d="M 2.771,8.5 A 2.374,2.374 0 0 1 0.471,7.346 6.342,6.342 0 0 1 0,4.591 9,9 0 0 1 0.409,1.451 2.367,2.367 0 0 1 2.859,0 a 2.235,2.235 0 0 1 2.3,1.273 7.807,7.807 0 0 1 0.352,2.785 v 0.383 h -4.2 v 0.533 a 5.329,5.329 0 0 0 0.2,1.807 1.252,1.252 0 0 0 1.255,0.8 c 0.923,0 1.4,-0.591 1.458,-1.807 H 5.456 C 5.4,7.582 4.493,8.5 2.771,8.5 Z M 2.86,0.918 c -0.87,0 -1.371,0.528 -1.488,1.569 A 6.891,6.891 0 0 0 1.313,3.553 H 4.231 A 6.934,6.934 0 0 0 4.085,1.9 1.216,1.216 0 0 0 2.86,0.918 Z"
         transform="translate(88.221,4.498)"
         fill="#1d1d1e" />
      <path
         id="Path-6"
         data-name="Path"
         d="M 4.961,6.1 C 4.961,7.7 4.115,8.469 2.423,8.469 0.789,8.466 -0.027,7.608 0,5.831 h 1.255 a 2.392,2.392 0 0 0 0.03,0.475 c 0.059,0.828 0.466,1.273 1.166,1.273 0.818,0 1.226,-0.416 1.226,-1.273 A 1.44,1.44 0 0 0 3.3,5.24 4.867,4.867 0 0 0 2.22,4.53 7.33,7.33 0 0 1 0.79,3.612 1.939,1.939 0 0 1 0.175,2.1 1.962,1.962 0 0 1 0.875,0.5 2.521,2.521 0 0 1 2.569,0 2.2,2.2 0 0 1 4.348,0.591 2.762,2.762 0 0 1 4.9,2.4 H 3.646 C 3.646,1.39 3.268,0.889 2.509,0.889 a 1.046,1.046 0 0 0 -0.787,0.3 1.211,1.211 0 0 0 -0.292,0.8 1.246,1.246 0 0 0 0.467,0.946 8.413,8.413 0 0 0 1.137,0.71 6.492,6.492 0 0 1 1.342,0.918 2.173,2.173 0 0 1 0.585,1.537 z"
         transform="translate(95.251,4.501)"
         fill="#1d1d1e" />
      <path
         id="Shape-5"
         data-name="Shape"
         d="M 1.313,11.576 H 0.059 V 3.4 h 1.254 v 8.171 z M 1.371,1.391 H 0 V 0 h 1.371 v 1.39 z"
         transform="translate(102.245,1.275)"
         fill="#1d1d1e" />
      <path
         id="Path-7"
         data-name="Path"
         d="M 5.486,8.349 H 4.2 V 3.109 A 4.023,4.023 0 0 0 4.054,1.687 1.056,1.056 0 0 0 2.976,0.949 1.461,1.461 0 0 0 1.692,1.777 3.644,3.644 0 0 0 1.342,3.436 V 8.35 H 0.087 V 1.95 A 14.217,14.217 0 0 0 0,0.178 h 1.255 v 1.1 A 2.186,2.186 0 0 1 3.355,0 c 1.4,0 2.129,0.83 2.129,2.546 v 5.8 z"
         transform="translate(105.667,4.498)"
         fill="#1d1d1e" />
      <path
         id="Path-8"
         data-name="Path"
         d="M 4.96,6.1 C 4.96,7.7 4.114,8.469 2.422,8.469 0.789,8.466 -0.029,7.608 0,5.831 h 1.255 c 0,0.178 0.029,0.327 0.029,0.475 0.087,0.828 0.467,1.273 1.167,1.273 0.816,0 1.225,-0.416 1.225,-1.273 A 1.444,1.444 0 0 0 3.3,5.24 4.893,4.893 0 0 0 2.22,4.53 7.228,7.228 0 0 1 0.79,3.612 1.936,1.936 0 0 1 0.175,2.1 1.962,1.962 0 0 1 0.875,0.5 2.522,2.522 0 0 1 2.568,0 2.2,2.2 0 0 1 4.347,0.591 2.605,2.605 0 0 1 4.9,2.4 H 3.647 C 3.647,1.39 3.267,0.889 2.51,0.889 a 1.047,1.047 0 0 0 -0.788,0.3 1.21,1.21 0 0 0 -0.291,0.8 1.245,1.245 0 0 0 0.466,0.946 8.413,8.413 0 0 0 1.137,0.71 A 6.506,6.506 0 0 1 4.377,4.563 2.18,2.18 0 0 1 4.96,6.1 Z"
         transform="translate(113.019,4.501)"
         fill="#1d1d1e" />
      <path
         id="Path-9"
         data-name="Path"
         d="m 3.939,10.244 c -0.409,0.03 -0.7,0.06 -0.933,0.06 A 1.946,1.946 0 0 1 1.518,9.83 2.558,2.558 0 0 1 1.2,8.29 V 2.99 H 0 V 2.072 H 1.2 V 0.563 L 2.451,0 v 2.072 h 1.43 V 2.99 h -1.43 v 5.154 a 1.664,1.664 0 0 0 0.175,0.916 0.979,0.979 0 0 0 0.73,0.239 c 0.059,0 0.263,-0.03 0.584,-0.06 z"
         transform="translate(119.059,2.604)"
         fill="#1d1d1e" />
      <path
         id="Shape-6"
         data-name="Shape"
         d="M 1.313,11.576 H 0.059 V 3.4 h 1.254 v 8.171 z M 1.371,1.391 H 0 V 0 h 1.371 v 1.39 z"
         transform="translate(124.513,1.271)"
         fill="#1d1d1e" />
      <path
         id="Path-10"
         data-name="Path"
         d="m 3.939,10.244 c -0.38,0.03 -0.7,0.06 -0.9,0.06 A 1.944,1.944 0 0 1 1.547,9.83 2.522,2.522 0 0 1 1.2,8.29 V 2.99 H 0 V 2.072 H 1.2 V 0.563 L 2.479,0 v 2.072 h 1.43 V 2.99 h -1.43 v 5.154 a 1.664,1.664 0 0 0 0.175,0.916 0.931,0.931 0 0 0 0.73,0.239 c 0.059,0 0.234,-0.03 0.555,-0.06 v 1 z"
         transform="translate(127.374,2.604)"
         fill="#1d1d1e" />
      <path
         id="Path-11"
         data-name="Path"
         d="M 5.455,8.172 H 4.2 L 4.171,7.106 A 2.272,2.272 0 0 1 2.129,8.29 C 0.7,8.29 0,7.462 0,5.773 V 0 H 1.255 V 5.212 A 5.037,5.037 0 0 0 1.4,6.631 1.107,1.107 0 0 0 2.538,7.343 q 1.575,0 1.574,-2.4 V 0 H 5.4 v 6.367 c 0,0.62 0,1.242 0.055,1.805 z"
         transform="translate(132.917,4.676)"
         fill="#1d1d1e" />
      <path
         id="Path-12"
         data-name="Path"
         d="m 3.939,10.244 c -0.409,0.03 -0.7,0.06 -0.933,0.06 A 1.946,1.946 0 0 1 1.518,9.83 2.791,2.791 0 0 1 1.2,8.29 V 2.99 H 0 V 2.072 H 1.2 V 0.563 L 2.451,0 v 2.072 h 1.43 V 2.99 h -1.43 v 5.154 a 1.4,1.4 0 0 0 0.2,0.916 0.858,0.858 0 0 0 0.7,0.239 c 0.059,0 0.263,-0.03 0.584,-0.06 v 1 z"
         transform="translate(139.86,2.604)"
         fill="#1d1d1e" />
      <path
         id="Path-13"
         data-name="Path"
         d="M 3.88,1.035 H 3.38 A 0.818,0.818 0 0 0 2.563,1.48 2.648,2.648 0 0 0 2.447,2.458 V 3.643 H 3.822 V 4.589 H 2.451 v 7.223 H 1.2 V 4.589 H 0 V 3.643 H 1.2 V 2.753 A 3.855,3.855 0 0 1 1.517,0.859 1.773,1.773 0 0 1 3.238,0 c 0.2,0 0.437,0.03 0.642,0.03 z"
         transform="translate(56.014,18.141)"
         fill="#1d1d1e" />
      <path
         id="Path-14"
         data-name="Path"
         d="M 5.456,8.17 H 4.2 L 4.172,7.134 A 2.253,2.253 0 0 1 2.159,8.288 C 0.73,8.288 0,7.459 0,5.773 V 0 h 1.255 v 5.21 a 3.977,3.977 0 0 0 0.175,1.421 1.071,1.071 0 0 0 1.108,0.71 q 1.576,0 1.576,-2.4 V 0 H 5.4 v 6.365 c 0,0.651 0.027,1.244 0.056,1.805 z"
         transform="translate(61.469,21.769)"
         fill="#1d1d1e" />
      <path
         id="Shape-7"
         data-name="Shape"
         d="M 3.677,1.541 H 2.48 V 0 h 1.2 v 1.54 z m -2.48,0 H 0 V 0 h 1.2 v 1.54 z"
         transform="translate(62.344,18.357)"
         fill="#1d1d1e" />
      <path
         id="Path-15"
         data-name="Path"
         d="M 3.414,1.243 A 1.035,1.035 0 0 0 3.152,1.215 1.656,1.656 0 0 0 1.78,1.776 2.441,2.441 0 0 0 1.343,3.285 V 8.348 H 0.059 V 1.658 C 0.059,1.125 0.03,0.621 0,0.179 H 1.255 V 1.244 A 2.155,2.155 0 0 1 3.3,0 c 0.085,0 0.114,0.415 0.114,1.243 z"
         transform="translate(69.171,21.591)"
         fill="#1d1d1e" />
      <path
         id="Shape-8"
         data-name="Shape"
         d="M 1.342,11.725 H 0 L 3.385,0 H 5.048 L 8.4,11.723 H 6.972 L 6.155,8.764 h -4 L 1.339,11.725 Z M 4.172,1.3 2.508,7.669 h 3.356 z"
         transform="translate(77.078,18.228)"
         fill="#1d1d1e" />
      <path
         id="Path-16"
         data-name="Path"
         d="M 3.413,1.243 A 1.043,1.043 0 0 0 3.151,1.215 1.653,1.653 0 0 0 1.78,1.776 2.434,2.434 0 0 0 1.343,3.285 V 8.348 H 0.059 V 1.658 C 0.059,1.125 0.029,0.621 0,0.179 H 1.255 V 1.244 A 2.155,2.155 0 0 1 3.3,0 c 0.084,0 0.113,0.415 0.113,1.243 z"
         transform="translate(86.88,21.591)"
         fill="#1d1d1e" />
      <path
         id="Path-17"
         data-name="Path"
         d="M 4.522,8.17 H 0 V 7.134 L 3.151,0.946 H 0.175 V 0 h 4.317 v 1.006 l -3.15,6.187 h 3.18 z"
         transform="translate(91.169,21.769)"
         fill="#1d1d1e" />
      <path
         id="Path-18"
         data-name="Path"
         d="M 5.457,8.349 H 4.2 V 3.108 A 5.037,5.037 0 0 0 4.054,1.689 1.072,1.072 0 0 0 2.947,0.977 1.36,1.36 0 0 0 1.692,1.777 3.319,3.319 0 0 0 1.313,3.436 V 8.349 H 0.059 v -6.4 C 0.059,1.244 0.029,0.653 0,0.18 H 1.255 V 1.3 A 2.155,2.155 0 0 1 3.325,0 c 1.43,0 2.13,0.859 2.13,2.547 v 5.8 z"
         transform="translate(97.382,21.59)"
         fill="#1d1d1e" />
      <path
         id="Shape-9"
         data-name="Shape"
         d="M 2.743,8.5 A 2.4,2.4 0 0 1 0.443,7.346 6.405,6.405 0 0 1 0,4.591 8.76,8.76 0 0 1 0.38,1.481 2.429,2.429 0 0 1 2.859,0 2.2,2.2 0 0 1 5.135,1.3 7.614,7.614 0 0 1 5.486,4.054 v 0.385 h -4.2 v 0.532 a 5.112,5.112 0 0 0 0.234,1.806 1.2,1.2 0 0 0 1.225,0.8 c 0.939,0 1.43,-0.608 1.458,-1.806 H 5.456 C 5.368,7.608 4.48,8.5 2.743,8.5 Z M 2.83,0.917 c -0.871,0 -1.372,0.538 -1.487,1.6 -0.028,0.328 -0.059,0.7 -0.059,1.035 H 4.23 A 5.5,5.5 0 0 0 4.055,1.895 1.177,1.177 0 0 0 2.83,0.917 Z"
         transform="translate(104.909,21.59)"
         fill="#1d1d1e" />
      <path
         id="Shape-10"
         data-name="Shape"
         d="M 1.343,11.575 H 0.059 V 3.4 h 1.284 v 8.169 z M 1.4,1.42 H 0 V 0 h 1.4 v 1.419 z"
         transform="translate(112.348,18.377)"
         fill="#1d1d1e" />
      <path
         id="Path-19"
         data-name="Path"
         d="M 8.928,8.348 H 7.674 V 2.843 A 3.1,3.1 0 0 0 7.5,1.6 0.915,0.915 0 0 0 6.535,0.977 q -1.4,0 -1.4,2.222 v 5.15 H 3.852 V 2.785 A 3.727,3.727 0 0 0 3.736,1.6 0.916,0.916 0 0 0 2.773,0.977 1.2,1.2 0 0 0 1.665,1.689 3.466,3.466 0 0 0 1.314,3.348 v 5 H 0.059 V 1.6 C 0.059,1.095 0.031,0.62 0,0.179 H 1.255 V 1.244 A 2.071,2.071 0 0 1 3.152,0 1.732,1.732 0 0 1 4.961,1.244 2.191,2.191 0 0 1 6.945,0 1.765,1.765 0 0 1 8.52,0.712 4.146,4.146 0 0 1 8.928,2.784 Z"
         transform="translate(115.994,21.591)"
         fill="#1d1d1e" />
      <path
         id="Shape-11"
         data-name="Shape"
         d="M 1.342,11.575 H 0.088 V 3.4 h 1.254 v 8.169 z M 1.4,1.42 H 0 V 0 h 1.4 v 1.419 z"
         transform="translate(127.227,18.377)"
         fill="#1d1d1e" />
      <path
         id="Path-20"
         data-name="Path"
         d="m 3.938,10.242 c -0.38,0.03 -0.7,0.06 -0.933,0.06 A 1.875,1.875 0 0 1 1.518,9.829 2.736,2.736 0 0 1 1.2,8.288 V 3.018 H 0 V 2.072 H 1.2 V 0.561 L 2.451,0 V 2.072 H 3.88 V 3.018 H 2.451 V 8.14 a 1.415,1.415 0 0 0 0.2,0.918 0.866,0.866 0 0 0 0.7,0.237 c 0.059,0 0.261,-0.03 0.583,-0.06 v 1.006 z"
         transform="translate(130.116,19.704)"
         fill="#1d1d1e" />
      <path
         id="Path-21"
         data-name="Path"
         d="m 3.94,10.242 c -0.409,0.03 -0.7,0.06 -0.935,0.06 A 1.838,1.838 0 0 1 1.518,9.829 2.736,2.736 0 0 1 1.2,8.288 V 3.018 H 0 V 2.072 H 1.2 V 0.561 L 2.452,0 v 2.072 h 1.43 V 3.018 H 2.452 V 8.14 a 1.415,1.415 0 0 0 0.2,0.918 0.866,0.866 0 0 0 0.7,0.237 c 0.059,0 0.262,-0.03 0.584,-0.06 v 1.006 z"
         transform="translate(134.812,19.704)"
         fill="#1d1d1e" />
      <path
         id="Shape-12"
         data-name="Shape"
         d="M 2.771,8.5 A 2.377,2.377 0 0 1 0.471,7.346 5.861,5.861 0 0 1 0,4.591 8.658,8.658 0 0 1 0.408,1.481 2.358,2.358 0 0 1 2.858,0 2.224,2.224 0 0 1 5.158,1.3 7.579,7.579 0 0 1 5.51,4.054 V 4.439 H 1.282 v 0.532 a 5.105,5.105 0 0 0 0.235,1.806 1.228,1.228 0 0 0 1.254,0.8 c 0.922,0 1.4,-0.591 1.458,-1.806 H 5.455 A 2.951,2.951 0 0 1 4.736,7.821 2.665,2.665 0 0 1 2.771,8.5 Z M 2.857,0.917 c -0.87,0 -1.371,0.538 -1.487,1.6 A 6.539,6.539 0 0 0 1.282,3.552 H 4.228 A 7.186,7.186 0 0 0 4.082,1.895 1.218,1.218 0 0 0 2.857,0.917 Z"
         transform="translate(140.008,21.59)"
         fill="#1d1d1e" />
      <path
         id="Path-22"
         data-name="Path"
         d="M 1.254,11.723 H 0 V 0 h 1.254 z"
         transform="translate(147.532,18.229)"
         fill="#1d1d1e" />
      <path
         id="Path-23"
         data-name="Path"
         d="M 5.455,8.173 H 4.2 L 4.171,7.137 A 2.3,2.3 0 0 1 2.129,8.291 C 0.7,8.291 0,7.461 0,5.773 V 0 H 1.255 V 5.211 A 5.461,5.461 0 0 0 1.4,6.662 1.1,1.1 0 0 0 2.537,7.344 c 1.051,0 1.576,-0.8 1.576,-2.37 V 0 H 5.4 v 6.365 a 18.014,18.014 0 0 0 0.055,1.808 z"
         transform="translate(56.802,38.883)"
         fill="#1d1d1e" />
      <path
         id="Path-24"
         data-name="Path"
         d="M 5.457,8.353 H 4.2 V 3.139 A 5.153,5.153 0 0 0 4.054,1.688 1.071,1.071 0 0 0 2.948,0.978 1.386,1.386 0 0 0 1.693,1.778 3.737,3.737 0 0 0 1.314,3.435 V 8.351 H 0.059 v -6.4 C 0.059,1.242 0.03,0.651 0,0.178 H 1.255 V 1.3 A 2.2,2.2 0 0 1 3.325,0 c 1.43,0 2.129,0.859 2.129,2.546 v 5.807 z"
         transform="translate(64.502,38.704)"
         fill="#1d1d1e" />
      <path
         id="Shape-13"
         data-name="Shape"
         d="M 2.48,11.846 A 2.147,2.147 0 0 1 0.35,10.452 9.011,9.011 0 0 1 0,7.521 7.668,7.668 0 0 1 0.409,4.708 2.081,2.081 0 0 1 2.451,3.377 1.972,1.972 0 0 1 4.259,4.323 V 0 h 1.283 v 10.185 c 0,0.2 0.013,0.5 0.031,0.9 Q 5.586,11.369 5.6,11.722 H 4.375 V 10.774 A 2.174,2.174 0 0 1 2.48,11.846 Z M 2.77,4.324 A 1.272,1.272 0 0 0 1.515,5.39 7.746,7.746 0 0 0 1.282,7.55 7.824,7.824 0 0 0 1.544,9.918 1.233,1.233 0 0 0 2.744,10.927 1.317,1.317 0 0 0 4.082,9.89 7.425,7.425 0 0 0 4.317,7.728 9.053,9.053 0 0 0 4.083,5.328 1.3,1.3 0 0 0 2.77,4.323 Z"
         transform="translate(72.032,35.338)"
         fill="#1d1d1e" />
      <path
         id="Path-25"
         data-name="Path"
         d="M 10.007,11.727 H 8.665 V 1.036 L 5.718,11.727 H 4.2 L 1.225,1.036 V 11.727 H 0 V 0 H 2.217 L 5.017,10.334 7.76,0 h 2.247 z"
         transform="translate(84.021,35.338)"
         fill="#1d1d1e" />
      <path
         id="Shape-14"
         data-name="Shape"
         d="M 2.742,8.5 A 2.465,2.465 0 0 1 0.442,7.376 6.58,6.58 0 0 1 0,4.588 8.811,8.811 0 0 1 0.378,1.479 2.478,2.478 0 0 1 2.858,0 2.248,2.248 0 0 1 5.133,1.3 7.618,7.618 0 0 1 5.484,4.054 V 4.44 h -4.2 V 5 a 4.339,4.339 0 0 0 0.235,1.774 1.193,1.193 0 0 0 1.224,0.8 c 0.94,0 1.43,-0.608 1.458,-1.806 H 5.456 C 5.367,7.607 4.479,8.5 2.742,8.5 Z M 2.83,0.916 c -0.872,0 -1.373,0.537 -1.488,1.6 L 1.335,2.609 C 1.309,2.942 1.284,3.256 1.284,3.552 H 4.23 A 5.486,5.486 0 0 0 4.055,1.896 1.176,1.176 0 0 0 2.83,0.916 Z"
         transform="translate(96.303,38.707)"
         fill="#1d1d1e" />
      <path
         id="Shape-15"
         data-name="Shape"
         d="M 2.508,11.846 A 2.12,2.12 0 0 1 0.38,10.452 8.869,8.869 0 0 1 0,7.521 6.935,6.935 0 0 1 0.439,4.708 2.05,2.05 0 0 1 2.48,3.377 2.041,2.041 0 0 1 4.289,4.323 V 0 h 1.283 v 10.185 c 0,0.206 0.012,0.506 0.031,0.921 0.008,0.185 0.017,0.391 0.027,0.621 H 4.4 L 4.371,10.779 A 2.111,2.111 0 0 1 2.508,11.846 Z M 2.8,4.323 A 1.314,1.314 0 0 0 1.516,5.39 7.833,7.833 0 0 0 1.316,7.55 7.793,7.793 0 0 0 1.579,9.918 1.232,1.232 0 0 0 2.779,10.927 1.331,1.331 0 0 0 4.112,9.89 7.469,7.469 0 0 0 4.345,7.728 8.983,8.983 0 0 0 4.11,5.328 1.3,1.3 0 0 0 2.8,4.323 Z"
         transform="translate(103.482,35.338)"
         fill="#1d1d1e" />
      <path
         id="Shape-16"
         data-name="Shape"
         d="M 1.341,11.549 H 0.058 V 3.377 H 1.341 Z M 1.4,1.391 H 0 V 0 h 1.4 v 1.39 z"
         transform="translate(111.357,35.515)"
         fill="#1d1d1e" />
      <path
         id="Path-26"
         data-name="Path"
         d="M 4.521,8.173 H 0 V 7.137 L 3.15,0.946 H 0.175 V 0 H 4.492 V 1.006 L 1.342,7.2 h 3.179 z"
         transform="translate(114.42,38.883)"
         fill="#1d1d1e" />
      <path
         id="Shape-17"
         data-name="Shape"
         d="M 1.312,11.549 H 0.058 V 3.377 H 1.312 Z M 1.371,1.391 H 0 V 0 h 1.371 v 1.39 z"
         transform="translate(120.634,35.515)"
         fill="#1d1d1e" />
      <path
         id="Path-27"
         data-name="Path"
         d="M 5.456,8.353 H 4.172 V 3.139 A 5.5,5.5 0 0 0 4.056,1.688 1.094,1.094 0 0 0 2.948,0.978 1.355,1.355 0 0 0 1.693,1.778 3.373,3.373 0 0 0 1.313,3.435 V 8.351 H 0.059 v -6.4 C 0.059,1.242 0.03,0.651 0,0.178 H 1.225 V 1.3 A 2.239,2.239 0 0 1 3.325,0 c 1.4,0 2.129,0.859 2.129,2.546 v 5.807 z"
         transform="translate(124.281,38.704)"
         fill="#1d1d1e" />
      <path
         id="Shape-18"
         data-name="Shape"
         d="M 1.314,11.427 H 0.059 V 2.072 A 14.848,14.848 0 0 0 0,0.177 H 1.256 V 1.154 A 2.144,2.144 0 0 1 3.239,0 2.063,2.063 0 0 1 5.281,1.3 8.287,8.287 0 0 1 5.632,4.111 8.778,8.778 0 0 1 5.281,7.044 2.093,2.093 0 0 1 3.151,8.467 2.1,2.1 0 0 1 1.314,7.549 v 3.877 z M 2.888,0.975 a 1.331,1.331 0 0 0 -1.314,1.036 6.94,6.94 0 0 0 -0.291,2.337 8.3,8.3 0 0 0 0.2,2.1 1.381,1.381 0 0 0 1.4,1.066 c 0.649,0 1.08,-0.418 1.283,-1.243 A 9.86,9.86 0 0 0 4.312,4.108 8.985,8.985 0 0 0 4.137,2.008 1.267,1.267 0 0 0 2.888,0.975 Z"
         transform="translate(132.041,38.7)"
         fill="#1d1d1e" />
      <path
         id="Path-28"
         data-name="Path"
         d="M 3.415,1.214 A 1.046,1.046 0 0 0 3.152,1.186 1.733,1.733 0 0 0 1.781,1.749 2.432,2.432 0 0 0 1.343,3.258 V 8.322 H 0.059 V 1.629 C 0.059,1.095 0.03,0.593 0,0.148 H 1.256 V 1.214 A 2.127,2.127 0 0 1 3.3,0 c 0.084,0 0.115,0.385 0.115,1.214 z"
         transform="translate(139.655,38.734)"
         fill="#1d1d1e" />
      <path
         id="Shape-19"
         data-name="Shape"
         d="M 2.8,8.5 A 2.323,2.323 0 0 1 0.466,7.374 6.754,6.754 0 0 1 0,4.323 7.165,7.165 0 0 1 0.495,1.273 2.393,2.393 0 0 1 2.887,0 2.271,2.271 0 0 1 5.187,1.183 7.252,7.252 0 0 1 5.6,4.2 6.91,6.91 0 0 1 5.105,7.37 2.347,2.347 0 0 1 2.8,8.5 Z M 2.858,0.917 A 1.321,1.321 0 0 0 1.487,1.982 7.1,7.1 0 0 0 1.312,3.877 V 5.032 A 5.638,5.638 0 0 0 1.487,6.719 1.277,1.277 0 0 0 2.799,7.579 1.248,1.248 0 0 0 4.083,6.75 4.628,4.628 0 0 0 4.318,5.092 V 3.849 A 7.006,7.006 0 0 0 4.142,1.923 1.253,1.253 0 0 0 2.858,0.917 Z"
         transform="translate(144.266,38.706)"
         fill="#1d1d1e" />
      <path
         id="Shape-20"
         data-name="Shape"
         d="M 2.48,11.846 A 2.1,2.1 0 0 1 0.38,10.452 8.055,8.055 0 0 1 0,7.521 6.935,6.935 0 0 1 0.439,4.708 2.032,2.032 0 0 1 2.451,3.377 2.066,2.066 0 0 1 4.289,4.323 V 0 h 1.283 v 10.185 c 0,0.274 0,0.784 0.058,1.542 H 4.4 L 4.372,10.779 A 2.149,2.149 0 0 1 2.48,11.846 Z M 2.8,4.323 A 1.3,1.3 0 0 0 1.517,5.39 7.682,7.682 0 0 0 1.283,7.55 7.833,7.833 0 0 0 1.544,9.918 c 0.243,0.679 0.635,1.009 1.2,1.009 A 1.35,1.35 0 0 0 4.113,9.89 7.632,7.632 0 0 0 4.313,7.728 7.751,7.751 0 0 0 4.079,5.328 1.255,1.255 0 0 0 2.8,4.323 Z"
         transform="translate(151.617,35.338)"
         fill="#1d1d1e" />
      <path
         id="Path-29"
         data-name="Path"
         d="M 5.456,8.173 H 4.2 L 4.171,7.137 A 2.257,2.257 0 0 1 2.159,8.291 C 0.729,8.291 0,7.461 0,5.773 V 0 H 1.255 V 5.211 A 4.283,4.283 0 0 0 1.43,6.662 1.081,1.081 0 0 0 2.537,7.344 c 1.051,0 1.576,-0.8 1.576,-2.37 V 0 H 5.4 v 6.365 c 0,0.654 0.026,1.245 0.056,1.808 z"
         transform="translate(159.552,38.883)"
         fill="#1d1d1e" />
      <path
         id="Shape-21"
         data-name="Shape"
         d="M 5.426,11.727 H 3.939 L 1.313,7.164 3.7,3.553 h 1.46 l -2.476,3.583 2.741,4.59 z m -4.172,0 H 0 V 0 h 1.254 v 11.726 z"
         transform="translate(167.341,35.338)"
         fill="#1d1d1e" />
      <path
         id="Path-30"
         data-name="Path"
         d="m 3.939,10.245 c -0.409,0.028 -0.7,0.06 -0.933,0.06 A 1.839,1.839 0 0 1 1.518,9.83 2.729,2.729 0 0 1 1.2,8.29 V 3.018 H 0 V 2.072 H 1.2 V 0.563 L 2.451,0 v 2.072 h 1.43 v 0.946 h -1.43 v 5.124 a 1.373,1.373 0 0 0 0.2,0.919 c 0.116,0.178 0.351,0.237 0.7,0.237 0.059,0 0.262,-0.028 0.584,-0.06 z"
         transform="translate(173.293,36.816)"
         fill="#1d1d1e" />
      <path
         id="Shape-22"
         data-name="Shape"
         d="M 2.771,8.5 A 2.436,2.436 0 0 1 0.466,7.374 6.125,6.125 0 0 1 0,4.588 8.679,8.679 0 0 1 0.408,1.479 2.4,2.4 0 0 1 2.858,0 2.274,2.274 0 0 1 5.158,1.3 7.618,7.618 0 0 1 5.509,4.054 V 4.44 h -4.2 V 5 a 5.144,5.144 0 0 0 0.2,1.774 1.227,1.227 0 0 0 1.255,0.8 c 0.922,0 1.4,-0.591 1.457,-1.806 H 5.455 C 5.4,7.607 4.518,8.5 2.771,8.5 Z M 2.858,0.916 c -0.871,0 -1.372,0.537 -1.487,1.6 A 6.355,6.355 0 0 0 1.312,3.552 H 4.229 A 7.224,7.224 0 0 0 4.084,1.896 1.218,1.218 0 0 0 2.858,0.916 Z"
         transform="translate(178.486,38.707)"
         fill="#1d1d1e" />
      <rect
         style="fill:none;stroke-width:1.01344"
         id="rect4"
         width="222.61369"
         height="124.51859"
         x="-19.143888"
         y="-18.864288"
         transform="translate(-1.6535434e-6)" />
    </g>
  </g>
</svg>
